# xmcd
#
# Track frame offsets: 
#        150
#        14430
#        29631
#        43687
#        63544
#        82184
#        94397
#        112883
#        122363
#        133861
#        146069
#        163122
#        178651
#        190190
#
# Disc length: 2798 seconds
#
# Revision: 0
# Processed by: cddbd v1.5.2PL0 Copyright (c) Steve Scherf et al.
# Submitted via: ExactAudioCopy v0.99pb4
#
DISCID=cb0aec0e
DTITLE=Justin Trevino - Texas Honkytonk
DYEAR=1998
DGENRE=Country
TTITLE0=Tonight Carmen
TTITLE1=Texas Honky-Tonk
TTITLE2=Walk Me To The Door
TTITLE3=Love Me
TTITLE4=I Turn To The Wine
TTITLE5=Wrong Company
TTITLE6=Take Me As I Am
TTITLE7=Let Old Mother Nature Have Her Way
TTITLE8=Lord Forgive
TTITLE9=Last Love
TTITLE10=Forbidden Love
TTITLE11=There Goes My Everything
TTITLE12=What A Way To Live
TTITLE13=This Song's Just For You
EXTD=
EXTT0=
EXTT1=
EXTT2=
EXTT3=
EXTT4=
EXTT5=
EXTT6=
EXTT7=
EXTT8=
EXTT9=
EXTT10=
EXTT11=
EXTT12=
EXTT13=
PLAYORDER=
